<svg xmlns="http://www.w3.org/2000/svg" viewBox="0 0 80 110" fill="none" stroke="#564929" stroke-linecap="round" stroke-linejoin="round" stroke-width="0.9">
  <!-- Esophagus -->
  <line x1="36" y1="5" x2="36" y2="22"/>
  <!-- Stomach (full outline) -->
  <path d="M36 22 C30 22 20 28 16 42 C12 56 14 72 22 82 C28 88 36 90 44 88 C52 86 60 80 64 70 C68 60 66 46 60 36 C55 28 48 22 44 22 Z"/>
  <!-- Gastric band (arc around upper stomach) -->
  <path d="M22 32 C28 26 36 24 44 26 C50 28 56 32 58 38" stroke-width="1.2"/>
  <!-- Removal arrows (pointing away from band) -->
  <!-- Arrow up-left -->
  <path d="M22 32 L14 22" stroke-width="0.75"/>
  <path d="M14 22 L13 28 M14 22 L20 23" stroke-width="0.65"/>
  <!-- Arrow up-right -->
  <path d="M58 38 L66 28" stroke-width="0.75"/>
  <path d="M66 28 L60 27 M66 28 L65 34" stroke-width="0.65"/>
  <!-- Duodenum -->
  <path d="M56 82 C60 88 64 96 66 102"/>
</svg>
