<svg xmlns="http://www.w3.org/2000/svg" viewBox="0 0 80 110" fill="none" stroke="#564929" stroke-linecap="round" stroke-linejoin="round" stroke-width="0.9">
  <!-- Esophagus -->
  <line x1="47" y1="5" x2="47" y2="22"/>
  <!-- Sleeve (remaining stomach) -->
  <path d="M38 22 C35 22 33 26 33 33 L33 74 C33 79 37 83 42 83 L50 83 C55 83 59 79 59 74 L59 33 C59 26 57 22 54 22 Z"/>
  <!-- Removed portion — dashed outer curve -->
  <path d="M38 22 C28 24 16 36 14 52 C12 68 20 82 33 87" stroke-dasharray="3 2" stroke-width="0.65"/>
  <!-- Staple/division line -->
  <line x1="33" y1="23" x2="33" y2="83" stroke-dasharray="2 1.5" stroke-width="0.55"/>
  <!-- Duodenum exit -->
  <path d="M50 83 C53 88 58 94 64 97"/>
</svg>
