<svg xmlns="http://www.w3.org/2000/svg" id="Layer_1" viewBox="0 0 62.72 62.72">
  <defs>
    
  </defs>
  <path d="M28.82,38.97V0h-.57v38.96c-.3.08-.57.28-.71.64-.05.12-.07.25-.07.38v17.15c0,.55.36.91.78,1.02v4.56h.57v-4.56c.3-.08.57-.28.71-.64.05-.12.07-.25.07-.38v-17.15c0-.55-.36-.91-.78-1.02M34.47,38.97V0h-.57v38.96c-.3.08-.57.28-.71.64-.05.12-.07.25-.07.38v17.15c0,.55.36.91.78,1.02v4.56h.57v-4.56c.3-.08.57-.28.71-.64.05-.12.07-.25.07-.38v-17.15c0-.55-.36-.91-.78-1.02M40.83,26.51c-.14-.44-.41-.69-.71-.79V0h-.57v25.72c-.42.14-.78.58-.78,1.25v16.44c0,.16.02.32.07.47.14.44.41.69.71.78v18.05h.57v-18.06c.42-.14.78-.58.78-1.25v-16.44c0-.16-.02-.32-.07-.47ZM23.88,26.51c-.14-.44-.41-.69-.71-.79V0h-.57v25.72c-.42.14-.78.58-.78,1.25v16.44c0,.16.02.32.07.47.14.44.41.69.71.78v18.05h.57v-18.06c.42-.14.78-.58.78-1.25v-16.44c0-.16-.02-.32-.07-.47ZM46.48,10.81c-.14-.47-.41-.74-.71-.84V0h-.57v9.97c-.42.15-.78.62-.78,1.34v17.74c0,.17.03.34.07.5.14.47.41.74.71.84v32.33h.57V30.38c.42-.15.78-.62.78-1.34V11.31c0-.17-.02-.34-.07-.5ZM18.23,10.81c-.14-.47-.41-.74-.71-.84V0h-.57v9.97c-.42.15-.78.62-.78,1.34v17.74c0,.17.02.34.07.5.14.47.41.74.71.84v32.33h.57V30.38c.42-.15.78-.62.78-1.34V11.31c0-.17-.02-.34-.07-.5ZM51.42,3.49V0h-.57v3.49c-.45.14-.78.59-.78,1.13v9.1c0,.15.02.29.07.43.14.4.41.63.71.71v47.86h.57V14.86c.42-.13.78-.53.78-1.13V4.63c0-.54-.33-1-.78-1.13M11.87,3.49V0h-.57v3.49c-.45.14-.78.59-.78,1.13v9.1c0,.15.02.29.07.43.14.4.41.63.71.71v47.86h.57V14.86c.42-.13.78-.53.78-1.13V4.63c0-.54-.33-1-.78-1.13M57.07,3.49V0h-.57v3.49c-.45.12-.78.53-.78,1.02v53.39c0,.49.33.9.78,1.02v3.8h.57v-3.8c.45-.12.78-.54.78-1.02V4.51c0-.49-.33-.9-.78-1.02M6.22,3.49V0h-.57v3.49c-.45.12-.78.53-.78,1.02v53.39c0,.49.33.9.78,1.02v3.8h.57v-3.8c.45-.12.78-.54.78-1.02V4.51c0-.49-.33-.9-.78-1.02M62.15,62.72h.57V0h-.57v62.72ZM0,62.72h.57V0h-.57v62.72Z" fill="rgb(87, 74, 41)"/>
</svg>