<svg xmlns="http://www.w3.org/2000/svg" id="Layer_1" viewBox="0 0 197.78 28.22">
  <defs>
    
  </defs>
  <polygon points="23 .16 14.44 22.37 5.85 .16 0 .16 0 28.02 3.53 28.02 3.53 4 12.95 28.18 15.58 28.18 25.08 3.77 25.08 28.02 28.69 28.02 28.69 .16 23 .16" fill="rgb(87, 74, 41)"/>
  <polygon points="35.95 .16 35.95 28.02 57.42 28.02 57.42 24.49 39.72 24.49 39.72 14.99 49.3 14.99 49.3 11.46 39.72 11.46 39.72 3.69 55.97 3.69 55.97 .16 35.95 .16" fill="rgb(87, 74, 41)"/>
  <path d="M67.23,3.69v8.28h8.71c3.38,0,5.26-1.3,5.26-4.16s-1.88-4.12-5.26-4.12h-8.71ZM63.43.16h12.56c5.89,0,9.15,2.71,9.15,7.65,0,4-2.16,6.52-6.04,7.34l7.34,12.88h-4.12l-7.3-12.56h-7.77v12.56h-3.81V.16Z" fill="rgb(87, 74, 41)"/>
  <rect x="92.35" y=".16" width="3.81" height="27.87" fill="rgb(87, 74, 41)"/>
  <path d="M107.86,3.65v20.88h5.5c6.36,0,10.28-4.08,10.28-10.44s-3.92-10.44-10.28-10.44h-5.5ZM104.05.16h9.3c8.71,0,14.21,5.46,14.21,13.93s-5.46,13.93-14.21,13.93h-9.3V.16h0Z" fill="rgb(87, 74, 41)"/>
  <rect x="134.08" y=".16" width="3.81" height="27.87" fill="rgb(87, 74, 41)"/>
  <path d="M156.17,5.14l5.22,12.72h-10.44l5.22-12.72ZM154.6,0l-11.62,28.02h3.77l2.75-6.71h13.35l2.75,6.71h4L157.98,0h-3.38Z" fill="rgb(87, 74, 41)"/>
  <polygon points="194.13 .16 194.13 21.27 179.05 .16 174.5 .16 174.5 28.02 178.15 28.02 178.15 5.02 194.91 28.22 197.78 28.22 197.78 28.22 197.78 .16 194.13 .16" fill="rgb(87, 74, 41)"/>
</svg>